<svg width="55" height="55" viewBox="0 0 55 55" fill="none" xmlns="http://www.w3.org/2000/svg">
<rect width="55" height="55" rx="27.5" fill="#1392FD"/>
<path d="M21.459 36.875H16.9238V22.2705H21.459V36.875ZM19.189 20.2783C17.7388 20.2783 16.5625 19.0771 16.5625 17.627C16.5625 16.9304 16.8392 16.2623 17.3318 15.7698C17.8243 15.2772 18.4924 15.0005 19.189 15.0005C19.8855 15.0005 20.5536 15.2772 21.0462 15.7698C21.5387 16.2623 21.8154 16.9304 21.8154 17.627C21.8154 19.0771 20.6387 20.2783 19.189 20.2783ZM38.4326 36.875H33.9072V29.7656C33.9072 28.0713 33.873 25.8984 31.5493 25.8984C29.1914 25.8984 28.8301 27.7393 28.8301 29.6436V36.875H24.2998V22.2705H28.6494V24.2627H28.7129C29.3184 23.1152 30.7974 21.9043 33.0039 21.9043C37.5938 21.9043 38.4375 24.9268 38.4375 28.8525V36.875H38.4326Z" fill="white"/>
</svg>
