<svg width="55" height="55" viewBox="0 0 55 55" fill="none" xmlns="http://www.w3.org/2000/svg">
<rect width="55" height="55" rx="27.5" fill="#1392FD"/>
<path d="M38.8566 21.7743C38.584 20.7478 37.7808 19.9394 36.761 19.665C34.9124 19.1665 27.5001 19.1665 27.5001 19.1665C27.5001 19.1665 20.0877 19.1665 18.2392 19.665C17.2193 19.9394 16.4161 20.7478 16.1435 21.7743C15.6482 23.6348 15.6482 27.5167 15.6482 27.5167C15.6482 27.5167 15.6482 31.3985 16.1435 33.2591C16.4161 34.2856 17.2193 35.0603 18.2392 35.3346C20.0877 35.8332 27.5001 35.8332 27.5001 35.8332C27.5001 35.8332 34.9124 35.8332 36.761 35.3346C37.7808 35.0603 38.584 34.2856 38.8566 33.2591C39.3519 31.3985 39.3519 27.5167 39.3519 27.5167C39.3519 27.5167 39.3519 23.6348 38.8566 21.7743ZM25.0758 31.0411V23.9922L31.2711 27.5168L25.0758 31.0411Z" fill="white"/>
</svg>
