<svg width="40" height="40" viewBox="0 0 40 40" fill="none" xmlns="http://www.w3.org/2000/svg">
<mask id="mask0_3_690" style="mask-type:luminance" maskUnits="userSpaceOnUse" x="1" y="1" width="39" height="39">
<path d="M39.3734 1.27645H1.04004V39.6098H39.3734V1.27645Z" fill="white"/>
</mask>
<g mask="url(#mask0_3_690)">
<path fill-rule="evenodd" clip-rule="evenodd" d="M20.4283 1.3256C21.4993 1.39041 22.5142 1.8481 23.2803 2.61363C23.6655 2.93767 24.0907 3.205 24.54 3.41157C25.3583 3.68295 26.2368 3.76802 27.1073 3.64245C28.3027 3.31842 29.5783 3.53308 30.6053 4.22977C30.846 4.39583 31.0707 4.58215 31.2712 4.78872C32.1297 5.51375 32.6752 6.55472 32.7795 7.68883C32.8557 8.13033 32.968 8.47867 33.1125 8.7622C33.7983 9.55608 34.8173 9.57228 35.756 10.2082C36.791 10.9089 37.4888 11.9701 37.7577 13.1407C38.1348 14.2951 38.0867 15.5953 37.525 16.774C37.4528 17.017 37.4127 17.26 37.3967 17.5072C37.4648 17.9365 37.6213 18.3497 37.866 18.7182C38.945 19.7632 39.4947 21.2497 39.3542 22.7523C39.3222 23.0845 39.262 23.4045 39.1657 23.7163C38.901 25.0652 38.0867 26.248 36.9153 26.973C36.7147 27.212 36.5462 27.4468 36.4098 27.6777C35.5513 29.7678 36.7187 31.4365 34.9657 33.401C34.8935 33.482 34.8213 33.555 34.7532 33.6238C34.6848 33.7048 34.6127 33.7898 34.5325 33.8708C32.9318 35.564 31.0667 34.9158 29.6707 35.5882C29.5382 35.7057 29.4098 35.8393 29.2935 36.0013C28.2545 37.419 28.1423 38.5167 26.301 39.108C25.96 39.262 25.5468 39.3835 25.0293 39.4807C22.6947 39.906 22.093 38.7517 20.7332 38.4155C20.5847 38.379 20.4403 38.3587 20.3038 38.3507C18.2742 38.8123 18.1538 40.0073 15.2936 39.4848C13.9618 39.2417 12.7905 38.4438 12.0684 37.2853C11.7916 36.5765 11.2942 35.9973 10.6684 35.6207C10.4077 35.5235 10.1309 35.4627 9.84606 35.4343C8.61454 35.6207 7.36699 35.252 6.43232 34.4338C6.19966 34.2718 5.98304 34.0855 5.78647 33.8748C3.88506 31.8658 5.21284 30.0918 4.02546 27.8883C3.91314 27.7345 3.78879 27.5765 3.64839 27.4185C2.54924 26.7827 1.74296 25.7497 1.38593 24.5427C1.24152 24.166 1.14123 23.769 1.08908 23.356C0.7441 20.5287 2.66557 19.7065 2.90627 18.0093C2.89022 17.7703 2.83807 17.5152 2.74581 17.2398C2.10799 15.9922 2.05584 14.5948 2.48907 13.3675C2.70569 12.5858 3.11086 11.8567 3.68849 11.2654C4.74351 10.1799 5.31714 10.4998 6.24379 9.83962C6.39221 9.7343 6.52057 9.61685 6.63691 9.49128C7.43519 8.15868 7.20252 6.18207 8.91139 4.86973C9.04377 4.76847 9.17214 4.67532 9.29649 4.59835L9.30852 4.59025C11.1939 3.2293 12.1687 4.0961 13.9899 3.90978C14.2065 3.88548 14.4231 3.85307 14.6357 3.80447C15.3457 3.56548 16.0076 3.18475 16.5773 2.6744C17.4678 1.73065 18.5468 1.32155 19.8145 1.2851C20.0232 1.2851 20.2277 1.3013 20.4323 1.3337L20.4283 1.3256Z" fill="#FFB914"/>
<path fill-rule="evenodd" clip-rule="evenodd" d="M20.2067 4.74772C28.7912 4.74772 35.751 11.7752 35.751 20.4432C35.751 29.1112 28.7912 36.1387 20.2067 36.1387C11.6221 36.1387 4.66226 29.1112 4.66226 20.4432C4.66226 11.7752 11.6221 4.74772 20.2067 4.74772Z" fill="url(#paint0_radial_3_690)"/>
<path opacity="0.5" fill-rule="evenodd" clip-rule="evenodd" d="M29.0888 33.3277C34.2315 29.7147 36.7225 23.3352 35.4108 17.1502C34.095 10.9652 29.2332 6.18158 23.0717 5.01505C16.914 3.84853 10.6642 6.53397 7.21841 11.8198C10.8488 7.14963 16.7977 4.98265 22.5422 6.23828C28.2865 7.49392 32.8195 11.9494 34.2113 17.7172C35.6033 23.485 33.6137 29.5445 29.0848 33.3317L29.0888 33.3277Z" fill="#464646" fill-opacity="0.4"/>
<mask id="mask1_3_690" style="mask-type:luminance" maskUnits="userSpaceOnUse" x="7" y="11" width="25" height="22">
<path d="M31.8575 11.0477H7.80518V32.0933H31.8575V11.0477Z" fill="white"/>
</mask>
<g mask="url(#mask1_3_690)">
<path d="M26.0753 21.7055L30.9827 17.1568C32.1485 16.0762 32.1485 14.3164 30.9827 13.2357C30.4175 12.7118 29.6662 12.4232 28.8675 12.4232H26.1058V11.8711C26.1058 11.7833 26.1025 11.6955 26.099 11.6092C26.0838 11.2955 25.8047 11.0477 25.4645 11.0477H14.1981C13.858 11.0477 13.5788 11.2955 13.5636 11.6092C13.5585 11.6955 13.5568 11.7833 13.5568 11.8711V12.4232H10.7952C9.99651 12.4232 9.24519 12.7118 8.68001 13.2357C8.11653 13.7596 7.80518 14.456 7.80518 15.1963C7.80518 15.9366 8.11653 16.633 8.68171 17.1568L13.589 21.7055C13.8715 24.3892 16.1289 26.5427 18.9937 26.9002C18.9937 26.9033 18.9937 26.9048 18.9937 26.908V28.6443H14.8445C13.6025 28.6443 12.5923 29.5807 12.5923 30.732V31.5083C12.5923 31.833 12.8766 32.0965 13.2268 32.0965H26.4392C26.7895 32.0965 27.0737 31.833 27.0737 31.5083V30.732C27.0737 29.5807 26.0635 28.6443 24.8215 28.6443H20.6723V26.908C20.6723 26.908 20.6723 26.9033 20.6723 26.9002C23.5372 26.5442 25.7962 24.3907 26.077 21.7055H26.0753ZM28.8675 13.9807C29.2177 13.9807 29.5477 14.1078 29.7947 14.3368C30.3058 14.8104 30.3058 15.5821 29.7947 16.0574L26.1058 19.4767V13.9791L28.8675 13.9807ZM9.48379 15.1963C9.48379 14.8716 9.62084 14.5658 9.86791 14.3368C10.115 14.1078 10.4449 13.9807 10.7952 13.9807H13.5568V19.4767L9.86791 16.0558C9.61916 15.8268 9.48379 15.521 9.48379 15.1963Z" fill="white"/>
</g>
</g>
<defs>
<radialGradient id="paint0_radial_3_690" cx="0" cy="0" r="1" gradientUnits="userSpaceOnUse" gradientTransform="translate(20.2067 20.4432) rotate(90) scale(15.6954 15.5443)">
<stop offset="0.604167" stop-color="#F4B832"/>
<stop offset="1" stop-color="#F26F0F"/>
</radialGradient>
</defs>
</svg>
