<svg width="21" height="20" viewBox="0 0 21 20" fill="none" xmlns="http://www.w3.org/2000/svg">
<path id="Vector" fill-rule="evenodd" clip-rule="evenodd" d="M9.19 1.75C8.30358 1.75 7.42584 1.92459 6.60689 2.26381C5.78794 2.60303 5.04383 3.10023 4.41703 3.72703C3.79024 4.35382 3.29303 5.09794 2.95382 5.91689C2.6146 6.73583 2.44 7.61358 2.44 8.5C2.44 9.38642 2.6146 10.2642 2.95382 11.0831C3.29303 11.9021 3.79024 12.6462 4.41703 13.273C5.04383 13.8998 5.78794 14.397 6.60689 14.7362C7.42584 15.0754 8.30358 15.25 9.19 15.25C10.9802 15.25 12.6971 14.5388 13.963 13.273C15.2288 12.0071 15.94 10.2902 15.94 8.5C15.94 6.70979 15.2288 4.9929 13.963 3.72703C12.6971 2.46116 10.9802 1.75 9.19 1.75ZM0.940002 8.5C0.940177 7.1751 1.25944 5.86972 1.87079 4.6943C2.48214 3.51887 3.36759 2.50798 4.45224 1.74712C5.53689 0.986262 6.78883 0.497824 8.10217 0.323124C9.4155 0.148423 10.7516 0.292599 11.9974 0.743455C13.2433 1.19431 14.3622 1.93859 15.2595 2.91332C16.1569 3.88805 16.8063 5.06457 17.1528 6.34336C17.4994 7.62215 17.5328 8.96558 17.2503 10.26C16.9678 11.5545 16.3778 12.7618 15.53 13.78L20.22 18.47C20.2937 18.5387 20.3528 18.6215 20.3938 18.7135C20.4348 18.8055 20.4568 18.9048 20.4586 19.0055C20.4604 19.1062 20.4418 19.2062 20.4041 19.2996C20.3664 19.393 20.3103 19.4778 20.239 19.549C20.1678 19.6203 20.083 19.6764 19.9896 19.7141C19.8962 19.7518 19.7962 19.7704 19.6955 19.7686C19.5948 19.7668 19.4955 19.7448 19.4035 19.7038C19.3115 19.6628 19.2287 19.6037 19.16 19.53L14.47 14.84C13.2652 15.8435 11.7994 16.4829 10.2443 16.6833C8.68922 16.8836 7.10922 16.6367 5.68941 15.9714C4.2696 15.3061 3.06879 14.25 2.22763 12.9267C1.38648 11.6035 0.93983 10.068 0.940002 8.5ZM9.19 4.75C9.38892 4.75 9.57968 4.82902 9.72033 4.96967C9.86098 5.11032 9.94 5.30109 9.94 5.5V7.75H12.19C12.3889 7.75 12.5797 7.82902 12.7203 7.96967C12.861 8.11032 12.94 8.30109 12.94 8.5C12.94 8.69891 12.861 8.88968 12.7203 9.03033C12.5797 9.17098 12.3889 9.25 12.19 9.25H9.94V11.5C9.94 11.6989 9.86098 11.8897 9.72033 12.0303C9.57968 12.171 9.38892 12.25 9.19 12.25C8.99109 12.25 8.80032 12.171 8.65967 12.0303C8.51902 11.8897 8.44 11.6989 8.44 11.5V9.25H6.19C5.99109 9.25 5.80032 9.17098 5.65967 9.03033C5.51902 8.88968 5.44 8.69891 5.44 8.5C5.44 8.30109 5.51902 8.11032 5.65967 7.96967C5.80032 7.82902 5.99109 7.75 6.19 7.75H8.44V5.5C8.44 5.30109 8.51902 5.11032 8.65967 4.96967C8.80032 4.82902 8.99109 4.75 9.19 4.75Z" fill="black" fill-opacity="0.54"/>
</svg>
